<?xml version="1.0" encoding="utf-8"?>
<!DOCTYPE svg PUBLIC "-//W3C//DTD SVG 1.1//EN" "http://www.w3.org/Graphics/SVG/1.1/DTD/svg11.dtd">
<svg xmlns="http://www.w3.org/2000/svg" xmlns:xlink="http://www.w3.org/1999/xlink" version="1.1" baseProfile="full" width="16.8" height="16.8" viewBox="0 0 16.80 16.80" enable-background="new 0 0 16.80 16.80" xml:space="preserve">
	<path fill="#333333" fill-opacity="1" fill-rule="evenodd" stroke-width="0.48" stroke-linejoin="round" d="M 7.01167,9.44236C 6.21575,9.48676 4.75645,9.53159 4.53534,9.35309C 4.31414,9.17511 3.91622,8.81867 3.91622,8.81867L 4.22574,8.46248L 7.58658,8.15077C 7.58658,8.15077 7.80759,9.39759 7.01167,9.44236 Z M 13.6007,2.1375L 4.18154,8.15077L 2.89912,7.17093C 2.89912,7.17093 2.41261,6.76992 2.059,7.08157C 1.70516,7.39339 0.864912,8.32875 1.39569,8.86305C 1.92623,9.39759 2.72232,9.79845 2.36852,10.1995C 2.01463,10.6004 1.52829,10.7339 1.92623,11.2683C 2.32421,11.803 3.56244,13.0502 3.51824,13.5846C 3.47404,14.119 3.34124,17.0144 3.34124,17.0144C 3.34124,17.0144 3.60664,17.2816 3.69504,17.5488C 3.78356,17.816 4.04882,19.9989 4.00462,20.2213C 3.96036,20.4443 3.73942,21.0232 3.73942,21.2457C 3.73942,21.4687 3.78356,24.9871 3.78356,24.9871C 3.78356,24.9871 3.56244,25.3882 3.87196,25.6551C 4.18154,25.9226 5.64084,26.8579 5.81775,26.5466C 5.99462,26.2345 5.55243,25.6551 5.46403,25.5216C 5.37546,25.3882 5.28705,24.9871 5.28705,24.9871L 5.46403,24.7202C 5.46403,24.7202 6.96747,24.8982 7.14427,24.7647C 7.32125,24.6312 7.45396,24.4082 6.92327,24.1407C 6.39255,23.8739 6.12722,23.7403 6.12722,23.7403C 6.12722,23.7403 7.14427,16.3906 6.79047,15.9453C 6.79047,15.9453 7.27705,15.8563 7.63078,15.8563C 7.9845,15.8563 8.16156,15.6336 7.9845,15.2328C 7.80759,14.8319 6.61367,12.2037 6.52533,12.0703C 6.43675,11.9368 6.48107,11.3131 6.74627,11.1349C 7.01167,10.9566 9.39966,9.44236 9.39966,9.2641C 9.39966,9.08623 9.66496,7.83871 9.88594,7.83871C 10.1072,7.83871 15.0599,7.34884 15.0599,7.34884C 15.0599,7.34884 15.8116,4.7209 13.6007,2.1375 Z "/>
</svg>
